<?xml version="1.0" encoding="UTF-8" standalone="no"?>
<svg width="80px" height="81px" viewBox="0 0 80 81" version="1.1" xmlns="http://www.w3.org/2000/svg" xmlns:xlink="http://www.w3.org/1999/xlink">
    <!-- Generator: Sketch 48.2 (47327) - http://www.bohemiancoding.com/sketch -->
    <title>Page 1</title>
    <desc>Created with Sketch.</desc>
    <defs>
        <polygon id="path-1" points="0.744210526 39.7194545 40.2557895 79.2043247 79.7663158 39.7194545 40.2557895 0.233532468"></polygon>
    </defs>
    <g id="1-Homepage-Desktop" stroke="none" stroke-width="1" fill="none" fill-rule="evenodd" transform="translate(-535.000000, -1494.000000)">
        <g id="OVERVIEW" transform="translate(0.000000, 1150.000000)">
            <g id="icon4" transform="translate(535.000000, 344.000000)">
                <g id="Page-1">
                    <polygon id="Stroke-1" stroke="#00B3AE" points="79.7663158 40.2296494 40.2547368 79.7145195 0.744210526 40.2296494 40.2547368 0.743727273"></polygon>
                    <path d="M40.2551579,12.9365416 L40.2551579,19.6584896" id="Stroke-3" stroke="#00563B"></path>
                    <polygon id="Stroke-4" stroke="#00563B" points="19.54 33.5300026 60.8042105 33.5300026 60.8042105 29.1276 19.54 29.1276"></polygon>
                    <g id="Group-9" transform="translate(0.000000, 0.510405)">
                        <mask id="mask-2" fill="white">
                            <use xlink:href="#path-1"></use>
                        </mask>
                        <g id="Clip-6"></g>
                        <polygon id="Stroke-5" stroke="#00563B" mask="url(#mask-2)" points="19.54 56.6831688 60.8042105 56.6831688 60.8042105 53.582026 19.54 53.582026"></polygon>
                        <polygon id="Stroke-7" stroke="#00563B" mask="url(#mask-2)" points="17.0705263 59.7853636 63.2747368 59.7853636 63.2747368 56.6831688 17.0705263 56.6831688"></polygon>
                        <polygon id="Stroke-8" stroke="#00563B" mask="url(#mask-2)" points="40.1913684 19.4743987 22.2113684 28.6168792 58.1703158 28.6168792"></polygon>
                    </g>
                    <polygon id="Stroke-10" stroke="#00563B" points="44.736 14.7475753 40.2549474 12.2460429 40.2549474 17.2491078"></polygon>
                    <polygon id="Stroke-11" stroke="#00563B" points="23.0705263 54.0924312 26.0326316 54.0924312 26.0326316 36.2293013 23.0705263 36.2293013"></polygon>
                    <polygon id="Stroke-12" stroke="#00563B" points="33.7831579 54.0924312 36.7452632 54.0924312 36.7452632 36.2293013 33.7831579 36.2293013"></polygon>
                    <polygon id="Stroke-13" stroke="#00563B" points="44.4957895 54.0924312 47.4578947 54.0924312 47.4578947 36.2293013 44.4957895 36.2293013"></polygon>
                    <polygon id="Stroke-14" stroke="#00563B" points="55.2084211 54.0924312 58.1705263 54.0924312 58.1705263 36.2293013 55.2084211 36.2293013"></polygon>
                    <polygon id="Stroke-15" stroke="#00563B" points="21.7284211 36.2282494 27.3736842 36.2282494 27.3736842 33.5300026 21.7284211 33.5300026"></polygon>
                    <polygon id="Stroke-16" stroke="#00563B" points="32.4410526 36.2282494 38.0863158 36.2282494 38.0863158 33.5300026 32.4410526 33.5300026"></polygon>
                    <polygon id="Stroke-17" stroke="#00563B" points="43.1536842 36.2282494 48.7989474 36.2282494 48.7989474 33.5300026 43.1536842 33.5300026"></polygon>
                    <polygon id="Stroke-18" stroke="#00563B" points="53.8663158 36.2282494 59.5115789 36.2282494 59.5115789 33.5300026 53.8663158 33.5300026"></polygon>
                </g>
            </g>
        </g>
    </g>
</svg>