<?xml version="1.0" encoding="UTF-8" standalone="no"?>
<svg width="81px" height="80px" viewBox="0 0 81 80" version="1.1" xmlns="http://www.w3.org/2000/svg" xmlns:xlink="http://www.w3.org/1999/xlink">
    <!-- Generator: Sketch 48.2 (47327) - http://www.bohemiancoding.com/sketch -->
    <title>Page 1</title>
    <desc>Created with Sketch.</desc>
    <defs></defs>
    <g id="1-Homepage-Desktop" stroke="none" stroke-width="1" fill="none" fill-rule="evenodd" transform="translate(-535.000000, -1370.000000)">
        <g id="OVERVIEW" transform="translate(0.000000, 1150.000000)">
            <g id="icon2" transform="translate(535.000000, 220.000000)">
                <g id="Page-1">
                    <polygon id="Fill-1" fill="#00563B" points="45.4326316 47.8486316 46.4863158 47.8486316 46.4863158 44.8991579 45.4326316 44.8991579"></polygon>
                    <polygon id="Fill-2" fill="#00563B" points="55.2884211 47.8486316 56.3410526 47.8486316 56.3410526 44.8991579 55.2884211 44.8991579"></polygon>
                    <polygon id="Fill-3" fill="#00563B" points="42.9694737 47.8486316 44.0221053 47.8486316 44.0221053 44.8991579 42.9694737 44.8991579"></polygon>
                    <polygon id="Fill-4" fill="#00563B" points="47.8968421 47.8486316 48.9494737 47.8486316 48.9494737 44.8991579 47.8968421 44.8991579"></polygon>
                    <polygon id="Fill-5" fill="#00563B" points="50.3610526 47.8486316 51.4136842 47.8486316 51.4136842 44.8991579 50.3610526 44.8991579"></polygon>
                    <polygon id="Fill-6" fill="#00563B" points="52.8242105 47.8486316 53.8768421 47.8486316 53.8768421 44.8991579 52.8242105 44.8991579"></polygon>
                    <polygon id="Fill-7" fill="#00563B" points="60.9463158 53.3833684 61.9989474 53.3833684 61.9989474 50.4349474 60.9463158 50.4349474"></polygon>
                    <polygon id="Fill-8" fill="#00563B" points="48.7231579 69.9675789 49.7757895 69.9675789 49.7757895 67.0170526 48.7231579 67.0170526"></polygon>
                    <path d="M62.2590526,54.1518947 L47.0516842,54.1518947 L47.0516842,49.6676842 L58.9695789,49.6676842 L63.5748421,49.6676842 L63.5748421,54.1518947 L62.2590526,54.1518947 Z M41.3937895,48.6150526 L41.3937895,44.1308421 L45.9990526,44.1308421 L57.9169474,44.1308421 L57.9169474,48.6150526 L45.9990526,48.6150526 L41.3937895,48.6150526 Z M47.0516842,38.5961053 L49.6948421,38.5961053 L63.5748421,38.5961053 L63.5748421,43.0782105 L58.9695789,43.0782105 L47.0516842,43.0782105 L47.0516842,38.5961053 Z M43.3558947,32.0066316 L43.3558947,27.5224211 L59.8790526,27.5224211 L59.8790526,32.0066316 L49.6948421,32.0066316 L43.3558947,32.0066316 Z M67.2706316,33.0592632 L67.2706316,37.5434737 L64.6274737,37.5434737 L50.7474737,37.5434737 L50.7474737,33.0592632 L60.9316842,33.0592632 L67.2706316,33.0592632 Z M64.6274737,48.6150526 L58.9695789,48.6150526 L58.9695789,44.1308421 L64.6274737,44.1308421 L64.6274737,38.5961053 L68.3232632,38.5961053 L68.3232632,32.0066316 L60.9316842,32.0066316 L60.9316842,27.514 L66.8032632,27.514 L65.7506316,26.4613684 L49.5158947,26.4613684 L49.5158947,21.9792632 L61.2685263,21.9792632 L60.2158947,20.9266316 L48.4632632,20.9266316 L48.4632632,26.4697895 L42.3032632,26.4697895 L42.3032632,33.0592632 L49.6948421,33.0592632 L49.6948421,37.5434737 L45.9990526,37.5434737 L45.9990526,43.0782105 L40.3411579,43.0782105 L40.3411579,49.6676842 L45.9990526,49.6676842 L45.9990526,54.1518947 L43.6306316,54.1518947 L43.6306316,60.7413684 L45.9990526,60.7413684 L45.9990526,65.1982105 L43.6306316,65.1982105 L43.6306316,71.7866316 L45.9990526,71.7866316 L45.9990526,73.8013684 L47.0516842,72.7487368 L47.0516842,71.7866316 L48.0137895,71.7866316 L49.0790526,70.7203158 L45.9990526,70.7203158 L45.9990526,70.734 L44.6832632,70.734 L44.6832632,66.2508421 L45.9990526,66.2508421 L45.9990526,66.2782105 L53.5222105,66.2782105 L54.6022105,65.1982105 L47.0516842,65.1982105 L47.0516842,60.7413684 L59.0590526,60.7413684 L60.1116842,59.6887368 L45.9990526,59.6887368 L44.6832632,59.6887368 L44.6832632,55.2045263 L45.9990526,55.2045263 L61.2064211,55.2045263 L61.2064211,58.594 L62.2590526,57.5413684 L62.2590526,55.2045263 L64.5958947,55.2045263 L64.6274737,55.1729474 L64.6274737,48.6150526 Z" id="Fill-9" fill="#00563B"></path>
                    <polygon id="Fill-10" fill="#00563B" points="58.4821053 53.3833684 59.5347368 53.3833684 59.5347368 50.4349474 58.4821053 50.4349474"></polygon>
                    <polygon id="Fill-11" fill="#00563B" points="51.1872632 67.0173684 51.1872632 68.6131579 52.2398947 67.5605263 52.2398947 67.0173684"></polygon>
                    <polygon id="Fill-12" fill="#00563B" points="56.0189474 53.3833684 57.0726316 53.3833684 57.0726316 50.4349474 56.0189474 50.4349474"></polygon>
                    <polygon id="Fill-13" fill="#00563B" points="48.6273684 53.3833684 49.68 53.3833684 49.68 50.4349474 48.6273684 50.4349474"></polygon>
                    <polygon id="Fill-14" fill="#00563B" points="51.0915789 53.3833684 52.1442105 53.3833684 52.1442105 50.4349474 51.0915789 50.4349474"></polygon>
                    <polygon id="Fill-15" fill="#00563B" points="53.5557895 53.3833684 54.6084211 53.3833684 54.6084211 50.4349474 53.5557895 50.4349474"></polygon>
                    <polygon id="Fill-16" fill="#00563B" points="49.86 31.2391579 50.9126316 31.2391579 50.9126316 28.2907368 49.86 28.2907368"></polygon>
                    <polygon id="Fill-17" fill="#00563B" points="54.7863158 36.7749474 55.84 36.7749474 55.84 33.8265263 54.7863158 33.8265263"></polygon>
                    <polygon id="Fill-18" fill="#00563B" points="52.3231579 31.2391579 53.3757895 31.2391579 53.3757895 28.2907368 52.3231579 28.2907368"></polygon>
                    <polygon id="Fill-19" fill="#00563B" points="57.2505263 31.2391579 58.3031579 31.2391579 58.3031579 28.2907368 57.2505263 28.2907368"></polygon>
                    <polygon id="Fill-20" fill="#00563B" points="54.7863158 31.2391579 55.84 31.2391579 55.84 28.2907368 54.7863158 28.2907368"></polygon>
                    <polygon id="Fill-21" fill="#00563B" points="52.3231579 36.7749474 53.3757895 36.7749474 53.3757895 33.8265263 52.3231579 33.8265263"></polygon>
                    <polygon id="Fill-22" fill="#00563B" points="62.1778947 36.7749474 63.2305263 36.7749474 63.2305263 33.8265263 62.1778947 33.8265263"></polygon>
                    <polygon id="Fill-23" fill="#00563B" points="64.6421053 36.7749474 65.6947368 36.7749474 65.6947368 33.8265263 64.6421053 33.8265263"></polygon>
                    <polygon id="Fill-24" fill="#00563B" points="58.4821053 42.3117895 59.5347368 42.3117895 59.5347368 39.3623158 58.4821053 39.3623158"></polygon>
                    <polygon id="Fill-25" fill="#00563B" points="59.7147368 36.7749474 60.7673684 36.7749474 60.7673684 33.8265263 59.7147368 33.8265263"></polygon>
                    <polygon id="Fill-26" fill="#00563B" points="57.2505263 36.7749474 58.3031579 36.7749474 58.3031579 33.8265263 57.2505263 33.8265263"></polygon>
                    <polygon id="Fill-27" fill="#00563B" points="53.5557895 42.3117895 54.6084211 42.3117895 54.6084211 39.3623158 53.5557895 39.3623158"></polygon>
                    <polygon id="Fill-28" fill="#00563B" points="51.0915789 42.3117895 52.1442105 42.3117895 52.1442105 39.3623158 51.0915789 39.3623158"></polygon>
                    <polygon id="Fill-29" fill="#00563B" points="53.5557895 64.4570526 54.6084211 64.4570526 54.6084211 61.5086316 53.5557895 61.5086316"></polygon>
                    <polygon id="Fill-30" fill="#00563B" points="60.9463158 42.3117895 61.9989474 42.3117895 61.9989474 39.3623158 60.9463158 39.3623158"></polygon>
                    <polygon id="Fill-31" fill="#00563B" points="56.0189474 42.3117895 57.0726316 42.3117895 57.0726316 39.3623158 56.0189474 39.3623158"></polygon>
                    <polygon id="Fill-32" fill="#00563B" points="44.9315789 31.2391579 45.9842105 31.2391579 45.9842105 28.2907368 44.9315789 28.2907368"></polygon>
                    <polygon id="Fill-33" fill="#00563B" points="47.3957895 31.2391579 48.4484211 31.2391579 48.4484211 28.2907368 47.3957895 28.2907368"></polygon>
                    <polygon id="Fill-34" fill="#00563B" points="48.6273684 42.3117895 49.68 42.3117895 49.68 39.3623158 48.6273684 39.3623158"></polygon>
                    <polygon id="Fill-35" fill="#00563B" points="30.3284211 57.4328421 31.3821053 57.4328421 31.3821053 54.4844211 30.3284211 54.4844211"></polygon>
                    <polygon id="Fill-36" fill="#00563B" points="32.7926316 57.4328421 33.8452632 57.4328421 33.8452632 54.4844211 32.7926316 54.4844211"></polygon>
                    <polygon id="Fill-37" fill="#00563B" points="25.4010526 57.4328421 26.4536842 57.4328421 26.4536842 54.4844211 25.4010526 54.4844211"></polygon>
                    <polygon id="Fill-38" fill="#00563B" points="27.8652632 57.4328421 28.9178947 57.4328421 28.9178947 54.4844211 27.8652632 54.4844211"></polygon>
                    <path d="M35.42,53.7170526 L35.42,58.2012632 L34.1042105,58.2012632 L18.8978947,58.2012632 L18.8978947,53.7170526 L30.8147368,53.7170526 L35.42,53.7170526 Z M13.24,52.6644211 L13.24,48.1802105 L29.7621053,48.1802105 L29.7621053,52.6644211 L17.8452632,52.6644211 L13.24,52.6644211 Z M30.8147368,47.1275789 L12.1873684,47.1275789 L12.1873684,51.9202105 L13.9842105,53.7170526 L17.8452632,53.7170526 L17.8452632,57.5781053 L19.5210526,59.2538947 L33.0515789,59.2538947 L33.0515789,63.7370526 L24.0031579,63.7370526 L25.0557895,64.7896842 L34.1042105,64.7896842 L35.42,64.7896842 L35.42,69.2728421 L34.1042105,69.2728421 L34.1042105,69.2465263 L29.5136842,69.2465263 L30.5926316,70.3254737 L33.0515789,70.3254737 L33.0515789,72.7844211 L34.1042105,73.8370526 L34.1042105,70.3254737 L36.4726316,70.3254737 L36.4726316,63.7370526 L34.1042105,63.7370526 L34.1042105,59.2538947 L36.4726316,59.2538947 L36.4726316,52.6644211 L30.8147368,52.6644211 L30.8147368,47.1275789 Z" id="Fill-39" fill="#00563B"></path>
                    <polygon id="Fill-40" fill="#00563B" points="20.4736842 57.4328421 21.5263158 57.4328421 21.5263158 54.4844211 20.4736842 54.4844211"></polygon>
                    <polygon id="Fill-41" fill="#00563B" points="27.1347368 51.896 28.1873684 51.896 28.1873684 48.9475789 27.1347368 48.9475789"></polygon>
                    <polygon id="Fill-42" fill="#00563B" points="22.9368421 57.4328421 23.9894737 57.4328421 23.9894737 54.4844211 22.9368421 54.4844211"></polygon>
                    <polygon id="Fill-43" fill="#00563B" points="24.6705263 51.896 25.7231579 51.896 25.7231579 48.9475789 24.6705263 48.9475789"></polygon>
                    <polygon id="Fill-44" fill="#00563B" points="23.0324211 60.0201053 23.0324211 62.7653684 23.2366316 62.9695789 24.0850526 62.9695789 24.0850526 60.0201053"></polygon>
                    <polygon id="Fill-45" fill="#00563B" points="27.96 62.9696842 29.0136842 62.9696842 29.0136842 60.0202105 27.96 60.0202105"></polygon>
                    <polygon id="Fill-46" fill="#00563B" points="25.4968421 62.9696842 26.5494737 62.9696842 26.5494737 60.0202105 25.4968421 60.0202105"></polygon>
                    <polygon id="Fill-47" fill="#00563B" points="32.7926316 68.5054737 33.8452632 68.5054737 33.8452632 65.5570526 32.7926316 65.5570526"></polygon>
                    <polygon id="Fill-48" fill="#00563B" points="22.2063158 51.896 23.2589474 51.896 23.2589474 48.9475789 22.2063158 48.9475789"></polygon>
                    <polygon id="Fill-49" fill="#00563B" points="30.4242105 62.9696842 31.4768421 62.9696842 31.4768421 60.0202105 30.4242105 60.0202105"></polygon>
                    <polygon id="Fill-50" fill="#00563B" points="25.8243158 65.5574737 26.4537895 66.1869474 26.4537895 65.5574737"></polygon>
                    <polygon id="Fill-51" fill="#00563B" points="27.8649474 65.5574737 27.8649474 67.5974737 28.7723158 68.5058947 28.9175789 68.5058947 28.9175789 65.5574737"></polygon>
                    <polygon id="Fill-52" fill="#00563B" points="30.3284211 68.5054737 31.3821053 68.5054737 31.3821053 65.5570526 30.3284211 65.5570526"></polygon>
                    <polygon id="Fill-53" fill="#00563B" points="56.0188421 61.5093684 56.0188421 63.7809474 57.0725263 62.7283158 57.0725263 61.5093684"></polygon>
                    <polygon id="Fill-54" fill="#00563B" points="31.3342105 71.0673684 31.4763158 71.2094737 31.4763158 71.0673684"></polygon>
                    <polygon id="Fill-55" fill="#00563B" points="20.5683158 60.0201053 20.5683158 60.3011579 21.6209474 61.3537895 21.6209474 60.0201053"></polygon>
                    <polygon id="Fill-56" fill="#00563B" points="46.2589474 69.9675789 47.3115789 69.9675789 47.3115789 67.0170526 46.2589474 67.0170526"></polygon>
                    <polygon id="Fill-57" fill="#00563B" points="51.0915789 64.4570526 52.1442105 64.4570526 52.1442105 61.5086316 51.0915789 61.5086316"></polygon>
                    <polygon id="Fill-58" fill="#00563B" points="48.7231579 58.9202105 49.7757895 58.9202105 49.7757895 55.9717895 48.7231579 55.9717895"></polygon>
                    <polygon id="Fill-59" fill="#00563B" points="48.6273684 64.4570526 49.68 64.4570526 49.68 61.5086316 48.6273684 61.5086316"></polygon>
                    <polygon id="Fill-60" fill="#00563B" points="46.2589474 58.9202105 47.3115789 58.9202105 47.3115789 55.9717895 46.2589474 55.9717895"></polygon>
                    <polygon id="Fill-61" fill="#00563B" points="56.1136842 58.9202105 57.1663158 58.9202105 57.1663158 55.9717895 56.1136842 55.9717895"></polygon>
                    <polygon id="Fill-62" fill="#00563B" points="58.5778947 58.9202105 59.6305263 58.9202105 59.6305263 55.9717895 58.5778947 55.9717895"></polygon>
                    <polygon id="Fill-63" fill="#00563B" points="51.1873684 58.9202105 52.24 58.9202105 52.24 55.9717895 51.1873684 55.9717895"></polygon>
                    <polygon id="Fill-64" fill="#00563B" points="53.6505263 58.9202105 54.7042105 58.9202105 54.7042105 55.9717895 53.6505263 55.9717895"></polygon>
                    <polygon id="Fill-65" fill="#00563B" points="60.9463158 25.6949474 61.9989474 25.6949474 61.9989474 22.7454737 60.9463158 22.7454737"></polygon>
                    <polygon id="Fill-66" fill="#00563B" points="53.5557895 25.6949474 54.6084211 25.6949474 54.6084211 22.7454737 53.5557895 22.7454737"></polygon>
                    <polygon id="Fill-67" fill="#00563B" points="14.8157895 51.896 15.8684211 51.896 15.8684211 48.9475789 14.8157895 48.9475789"></polygon>
                    <polygon id="Fill-68" fill="#00563B" points="51.0915789 25.6949474 52.1442105 25.6949474 52.1442105 22.7454737 51.0915789 22.7454737"></polygon>
                    <polygon id="Fill-69" fill="#00563B" points="17.2778947 51.896 18.3315789 51.896 18.3315789 48.9475789 17.2778947 48.9475789"></polygon>
                    <polygon id="Fill-70" fill="#00563B" points="63.4102105 25.6950526 64.4628421 25.6950526 64.4628421 25.174 63.4102105 24.1213684"></polygon>
                    <polygon id="Fill-71" fill="#00563B" points="56.0189474 25.6949474 57.0726316 25.6949474 57.0726316 22.7454737 56.0189474 22.7454737"></polygon>
                    <polygon id="Fill-72" fill="#00563B" points="19.7421053 51.896 20.7947368 51.896 20.7947368 48.9475789 19.7421053 48.9475789"></polygon>
                    <polygon id="Fill-73" fill="#00563B" points="58.4821053 25.6949474 59.5347368 25.6949474 59.5347368 22.7454737 58.4821053 22.7454737"></polygon>
                    <polygon id="Stroke-74" stroke="#00B3AE" points="79.7662105 40.2548421 40.2556842 79.7664211 0.745157895 40.2548421 40.2556842 0.744315789"></polygon>
                </g>
            </g>
        </g>
    </g>
</svg>