<?xml version="1.0" encoding="UTF-8" standalone="no"?>
<svg width="82px" height="81px" viewBox="0 0 82 81" version="1.1" xmlns="http://www.w3.org/2000/svg" xmlns:xlink="http://www.w3.org/1999/xlink">
    <!-- Generator: Sketch 48.2 (47327) - http://www.bohemiancoding.com/sketch -->
    <title>Page 1</title>
    <desc>Created with Sketch.</desc>
    <defs></defs>
    <g id="1-Homepage-Desktop" stroke="none" stroke-width="1" fill="none" fill-rule="evenodd" transform="translate(-135.000000, -1494.000000)">
        <g id="OVERVIEW" transform="translate(0.000000, 1150.000000)">
            <g id="icon3" transform="translate(136.000000, 344.000000)">
                <g id="Page-1">
                    <polygon id="Stroke-1" stroke="#00B3AE" points="80 40.0005328 39.9994672 80 0 40.0005328 39.9994672 0"></polygon>
                    <path d="M38.4,18.1333333 L38.4,14.9333333" id="Stroke-3" stroke="#00563B"></path>
                    <g id="Group-16" transform="translate(12.800000, 18.066667)" stroke="#00563B">
                        <path d="M32.5106133,43.7093333 C32.5106133,45.5397333 31.0258133,47.0234667 29.1954133,47.0234667 C27.3650133,47.0234667 25.88128,45.5397333 25.88128,43.7093333 L25.88128,25.5184" id="Stroke-4"></path>
                        <path d="M1.02154667,25.47392 C1.02154667,11.7437867 12.1522133,0.614186667 25.88128,0.614186667 C39.6103467,0.614186667 50.7410133,11.7437867 50.7410133,25.47392" id="Stroke-6"></path>
                        <path d="M1.0304,25.4811733 C2.36693333,23.47904 4.64746667,22.16064 7.23626667,22.16064 C9.8112,22.16064 12.08,23.46304 13.4208,25.44704" id="Stroke-8"></path>
                        <path d="M13.46272,25.4760533 C14.8013867,23.47712 17.0797867,22.1608533 19.6664533,22.1608533 C22.2712533,22.1608533 24.56352,23.49632 25.8968533,25.51872" id="Stroke-10"></path>
                        <path d="M25.8746667,25.5041067 C27.2101333,23.4881067 29.4970667,22.1601067 32.0965333,22.1601067 C34.6714667,22.1601067 36.9402667,23.4635733 38.28,25.4465067" id="Stroke-12"></path>
                        <path d="M38.3220267,25.4760533 C39.6606933,23.47712 41.94016,22.1608533 44.52576,22.1608533 C47.0996267,22.1608533 49.3694933,23.4632533 50.7102933,25.4472533" id="Stroke-14"></path>
                    </g>
                </g>
            </g>
        </g>
    </g>
</svg>