<?xml version="1.0" encoding="UTF-8" standalone="no"?>
<svg width="56px" height="56px" viewBox="0 0 56 56" version="1.1" xmlns="http://www.w3.org/2000/svg" xmlns:xlink="http://www.w3.org/1999/xlink">
    <!-- Generator: Sketch 48.2 (47327) - http://www.bohemiancoding.com/sketch -->
    <title>ICON</title>
    <desc>Created with Sketch.</desc>
    <defs>
        <polygon id="path-1" points="28 0 56 28 28 56 0 28"></polygon>
    </defs>
    <g id="1-Homepage-Desktop" stroke="none" stroke-width="1" fill="none" fill-rule="evenodd" transform="translate(-297.000000, -2110.000000)">
        <g id="MEDIA" transform="translate(0.000000, 1730.000000)">
            <g id="ARTICLE1" transform="translate(135.000000, 193.000000)">
                <g id="ICON" transform="translate(162.000000, 187.000000)">
                    <g id="Polygon">
                        <use fill="#FFFFFF" fill-rule="evenodd" xlink:href="#path-1"></use>
                        <path stroke="#008C88" stroke-width="1" d="M28,0.707106781 L0.707106781,28 L28,55.2928932 L55.2928932,28 L28,0.707106781 Z"></path>
                    </g>
                    <g id="Page-1" transform="translate(20.000000, 17.000000)" stroke="#00563B">
                        <g id="Group-5" transform="translate(0.000000, 0.401400)">
                            <polygon id="Stroke-1" points="16.034 21.5001 0.5 21.5001 0.5 0.0991 11.286 0.0991 16.034 4.8461"></polygon>
                            <polyline id="Stroke-3" points="16.034 4.8463 11.286 4.8463 11.286 0.0983"></polyline>
                        </g>
                        <path d="M2.679,9.0817 L13.855,9.0817" id="Stroke-6"></path>
                        <path d="M2.679,12.0314 L13.855,12.0314" id="Stroke-7"></path>
                        <path d="M2.679,14.9816 L13.855,14.9816" id="Stroke-8"></path>
                        <path d="M2.679,17.9313 L13.855,17.9313" id="Stroke-9"></path>
                    </g>
                </g>
            </g>
        </g>
    </g>
</svg>