<?xml version="1.0" encoding="utf-8" ?>
<svg xmlns="http://www.w3.org/2000/svg" xmlns:xlink="http://www.w3.org/1999/xlink" width="49" height="49">
	<defs>
		<clipPath id="clip_0">
			<rect x="-164.11865" y="-535.38708" width="374.36252" height="738.742" clip-rule="evenodd"/>
		</clipPath>
	</defs>
	<g clip-path="url(#clip_0)">
		<path fill="rgb(255,255,255)" stroke="none" transform="matrix(0.9983 0 0 0.9983 16.5737 16.6728)" d="M15.3809 2.24023C16.1201 1.79701 16.688 1.09675 16.9544 0.261723C16.2642 0.671445 15.4985 0.969778 14.683 1.13024C14.0302 0.433869 13.1002 1.06581e-14 12.072 1.06581e-14C10.0966 1.06581e-14 8.49432 1.6015 8.49432 3.57688C8.49432 3.85808 8.52626 4.12993 8.58702 4.39165C5.61381 4.24366 2.97866 2.81976 1.21359 0.654308C0.905905 1.18321 0.729865 1.79701 0.729865 2.45288C0.729865 3.69373 1.36081 4.78891 2.32046 5.42998C1.7347 5.41206 1.18321 5.25004 0.701044 4.98287L0.701044 5.02805C0.701044 6.76041 1.9341 8.20689 3.56987 8.53561C3.26998 8.61662 2.95296 8.66179 2.62736 8.66179C2.39757 8.66179 2.17246 8.6392 1.95436 8.59636C2.40926 10.0179 3.73034 11.0516 5.296 11.0812C4.07229 12.0408 2.52999 12.6126 0.852938 12.6126C0.56473 12.6126 0.280418 12.5954 0 12.5627C1.5828 13.5761 3.46394 14.1689 5.48451 14.1689C12.0634 14.1689 15.6613 8.71944 15.6613 3.99206C15.6613 3.83705 15.6574 3.68282 15.6512 3.52781C16.3491 3.02462 16.9552 2.39446 17.4358 1.67705C16.7939 1.96137 16.1046 2.15376 15.3809 2.24023Z"/>
	</g>
	<defs>
		<clipPath id="clip_1">
			<path d="M24.6013 0.699984L0.600586 24.7007L24.6013 48.7015L48.6021 24.7007L24.6013 0.699984Z" clip-rule="evenodd"/>
		</clipPath>
	</defs>
	<g clip-path="url(#clip_1)">
		<path fill="none" stroke="rgb(248,238,154)" stroke-width="2" stroke-linecap="round" stroke-linejoin="round" transform="matrix(0.705905 -0.705905 0.705905 0.705905 0.600586 24.7007)" d="M0 0L34 0L34 34L0 34L0 0Z"/>
	</g>

</svg>